<mxfile host="app.diagrams.net" agent="Mozilla/5.0 (X11; Linux x86_64; rv:128.0) Gecko/20100101 Firefox/128.0" version="24.7.7">
  <diagram name="Page-1" id="c4acf3e9-155e-7222-9cf6-157b1a14988f">
    <mxGraphModel dx="819" dy="497" grid="1" gridSize="10" guides="1" tooltips="1" connect="1" arrows="1" fold="1" page="1" pageScale="1" pageWidth="850" pageHeight="1100" background="none" math="0" shadow="0">
      <root>
        <mxCell id="0" />
        <mxCell id="1" parent="0" />
        <mxCell id="GkY9V4qR9Ms1Mem7IImq-1" value="User" style="shape=umlActor;verticalLabelPosition=bottom;verticalAlign=top;html=1;" parent="1" vertex="1">
          <mxGeometry x="170" y="320" width="30" height="60" as="geometry" />
        </mxCell>
        <mxCell id="GkY9V4qR9Ms1Mem7IImq-2" value="" style="swimlane;startSize=0;" parent="1" vertex="1">
          <mxGeometry x="250" y="210" width="510" height="280" as="geometry" />
        </mxCell>
        <mxCell id="GkY9V4qR9Ms1Mem7IImq-3" value="View Map" style="ellipse;whiteSpace=wrap;html=1;" parent="GkY9V4qR9Ms1Mem7IImq-2" vertex="1">
          <mxGeometry x="50" y="115" width="100" height="50" as="geometry" />
        </mxCell>
        <mxCell id="GkY9V4qR9Ms1Mem7IImq-11" style="edgeStyle=none;curved=1;rounded=0;orthogonalLoop=1;jettySize=auto;html=1;exitX=0.5;exitY=0;exitDx=0;exitDy=0;entryX=0.5;entryY=1;entryDx=0;entryDy=0;fontSize=12;startSize=8;endSize=8;endArrow=open;endFill=0;" parent="GkY9V4qR9Ms1Mem7IImq-2" source="GkY9V4qR9Ms1Mem7IImq-4" target="GkY9V4qR9Ms1Mem7IImq-3" edge="1">
          <mxGeometry relative="1" as="geometry" />
        </mxCell>
        <mxCell id="GkY9V4qR9Ms1Mem7IImq-4" value="View Animals in an Area" style="ellipse;whiteSpace=wrap;html=1;" parent="GkY9V4qR9Ms1Mem7IImq-2" vertex="1">
          <mxGeometry x="50" y="210" width="100" height="50" as="geometry" />
        </mxCell>
        <mxCell id="GkY9V4qR9Ms1Mem7IImq-10" style="edgeStyle=none;curved=1;rounded=0;orthogonalLoop=1;jettySize=auto;html=1;exitX=0.5;exitY=1;exitDx=0;exitDy=0;entryX=0.5;entryY=0;entryDx=0;entryDy=0;fontSize=12;startSize=8;endSize=8;endArrow=open;endFill=0;" parent="GkY9V4qR9Ms1Mem7IImq-2" source="GkY9V4qR9Ms1Mem7IImq-6" target="GkY9V4qR9Ms1Mem7IImq-3" edge="1">
          <mxGeometry relative="1" as="geometry" />
        </mxCell>
        <mxCell id="GkY9V4qR9Ms1Mem7IImq-6" value="View Notices for an Area" style="ellipse;whiteSpace=wrap;html=1;" parent="GkY9V4qR9Ms1Mem7IImq-2" vertex="1">
          <mxGeometry x="50" y="20" width="100" height="50" as="geometry" />
        </mxCell>
        <mxCell id="GkY9V4qR9Ms1Mem7IImq-7" value="" style="endArrow=none;html=1;rounded=0;fontSize=12;startSize=8;endSize=8;curved=1;entryX=0;entryY=0.5;entryDx=0;entryDy=0;" parent="GkY9V4qR9Ms1Mem7IImq-2" target="GkY9V4qR9Ms1Mem7IImq-6" edge="1">
          <mxGeometry width="50" height="50" relative="1" as="geometry">
            <mxPoint x="-30" y="120" as="sourcePoint" />
            <mxPoint x="20" y="70" as="targetPoint" />
          </mxGeometry>
        </mxCell>
        <mxCell id="GkY9V4qR9Ms1Mem7IImq-12" value="&amp;lt;&amp;lt;Extend&amp;gt;&amp;gt;" style="text;html=1;align=center;verticalAlign=middle;whiteSpace=wrap;rounded=0;fontSize=10;" parent="GkY9V4qR9Ms1Mem7IImq-2" vertex="1">
          <mxGeometry x="110" y="80" width="60" height="20" as="geometry" />
        </mxCell>
        <mxCell id="OOmCZc1eALWBlrPc84Sh-1" value="&amp;lt;&amp;lt;Extend&amp;gt;&amp;gt;" style="text;html=1;align=center;verticalAlign=middle;whiteSpace=wrap;rounded=0;fontSize=10;" vertex="1" parent="GkY9V4qR9Ms1Mem7IImq-2">
          <mxGeometry x="110" y="170" width="60" height="30" as="geometry" />
        </mxCell>
        <mxCell id="GkY9V4qR9Ms1Mem7IImq-8" value="" style="endArrow=none;html=1;rounded=0;fontSize=12;startSize=8;endSize=8;curved=1;entryX=0;entryY=0.5;entryDx=0;entryDy=0;" parent="1" target="GkY9V4qR9Ms1Mem7IImq-3" edge="1">
          <mxGeometry width="50" height="50" relative="1" as="geometry">
            <mxPoint x="220" y="350" as="sourcePoint" />
            <mxPoint x="210" y="430" as="targetPoint" />
          </mxGeometry>
        </mxCell>
        <mxCell id="GkY9V4qR9Ms1Mem7IImq-9" value="" style="endArrow=none;html=1;rounded=0;fontSize=12;startSize=8;endSize=8;curved=1;entryX=0;entryY=0.5;entryDx=0;entryDy=0;" parent="1" target="GkY9V4qR9Ms1Mem7IImq-4" edge="1">
          <mxGeometry width="50" height="50" relative="1" as="geometry">
            <mxPoint x="220" y="370" as="sourcePoint" />
            <mxPoint x="170" y="490" as="targetPoint" />
          </mxGeometry>
        </mxCell>
      </root>
    </mxGraphModel>
  </diagram>
</mxfile>
